<?xml version="1.0" encoding="utf-8"?>
<!-- Generator: Adobe Illustrator 27.2.0, SVG Export Plug-In . SVG Version: 6.00 Build 0)  -->
<svg version="1.1" id="Layer_1" xmlns="http://www.w3.org/2000/svg" xmlns:xlink="http://www.w3.org/1999/xlink" x="0px" y="0px"
	 viewBox="0 0 350 350" style="enable-background:new 0 0 350 350;" xml:space="preserve">
<style type="text/css">
	.st0{fill:#003767;}
	.st1{fill:#FFC425;}
	.st2{fill:#E31937;}
	.st3{fill:#FFFFFF;}
</style>
<g>
	<path class="st0" d="M333.19,176.06l16.81-7.59c-0.26-4.69-0.65-9.38-1.12-14.02l-17.77-4.88c-1.09-6.83-2.64-13.54-4.62-20.05
		l13.85-12.17c-1.66-4.41-3.39-8.79-5.22-13.06l-18.38,0.54c-3.08-6.16-6.49-12.11-10.35-17.8l9.65-15.71
		c-2.86-3.73-5.84-7.39-8.77-10.97l-17.49,5.99c-4.74-4.97-9.73-9.67-15.07-13.98l4.63-17.89c-3.84-2.72-7.76-5.36-11.64-7.9
		l-14.94,10.83c-5.95-3.34-12.14-6.36-18.55-8.94l-0.81-18.42c-4.47-1.48-8.98-2.85-13.45-4.13l-11.09,14.74
		c-7.01-1.55-14.2-2.6-21.54-3.16l-6.18-17.3c-4.72-0.09-9.39-0.07-14.06,0l-6.3,17.45c-7.63,0.68-15.11,1.91-22.39,3.63
		L126.87,6.56c-4.48,1.39-8.94,2.9-13.34,4.43L113,29.64c-6.29,2.68-12.34,5.76-18.16,9.21L79.72,28.28
		c-3.91,2.65-7.72,5.41-11.5,8.13l4.94,17.79c-5.24,4.4-10.21,9.18-14.86,14.24l-17.54-5.68c-2.94,3.7-5.83,7.44-8.59,11.17
		l9.94,15.53c-3.7,5.75-7.09,11.75-10.04,17.98l-18.41-0.26c-1.7,4.38-3.37,8.81-4.93,13.17l14.06,11.94
		c-1.84,6.57-3.29,13.25-4.27,20.12l-17.74,5.2c-0.32,4.68-0.6,9.38-0.79,14.03l16.96,7.3c0.18,6.95,0.73,13.79,1.76,20.48
		L3.35,209.56c1.04,4.59,2.17,9.17,3.34,13.67l18.32,1.97c2.17,6.55,4.76,12.96,7.76,19.09L21.04,258.5
		c2.32,4.07,4.77,8.11,7.21,12.07l18.12-3.49c3.96,5.59,8.32,10.9,13,15.91l-7.05,17.06c3.41,3.23,6.93,6.37,10.44,9.45l16.26-8.68
		c5.47,4.18,11.17,8,17.14,11.42l-1.71,18.36c4.2,2.07,8.5,4.06,12.73,5.97l12.98-13.03c6.39,2.38,13,4.29,19.75,5.85l3.75,18.04
		c4.65,0.76,9.31,1.38,13.92,1.96l8.61-16.3c2.91,0.15,5.89,0.27,8.84,0.27c3.96,0,7.89-0.2,11.73-0.49l8.87,16.17
		c4.69-0.65,9.35-1.41,13.9-2.22l3.44-18.1c6.74-1.64,13.29-3.74,19.63-6.24l13.22,12.83c4.27-1.99,8.5-4.08,12.64-6.22l-2.03-18.29
		c5.88-3.55,11.53-7.48,16.87-11.74l16.48,8.39c3.5-3.15,6.92-6.41,10.23-9.66l-7.34-16.9c4.57-5.12,8.85-10.52,12.76-16.18
		l18.16,3.18c2.37-4.03,4.71-8.13,6.93-12.23l-11.93-13.97c2.87-6.2,5.39-12.61,7.45-19.23l18.26-2.29
		c1.11-4.56,2.13-9.17,3.01-13.71l-15.56-9.88C332.65,189.86,333.14,183.01,333.19,176.06"/>
	<path class="st1" d="M175.29,273.17c-54.52,0-98.76-43.89-98.76-98.06c0-54.15,44.24-98.05,98.76-98.05
		c54.54,0,98.76,43.89,98.76,98.05C274.04,229.28,229.83,273.17,175.29,273.17 M296.46,181.41l0.16-5.36c0-0.08,0.13-0.17,0.27-0.15
		l6.83-2.73c-0.02-1.43-0.02-2.89-0.13-4.31l-7.01-2.28c-0.13,0.04-0.23-0.06-0.23-0.12l-0.53-5.33c0-0.09,0.11-0.16,0.24-0.16
		l6.45-3.56c-0.19-1.46-0.43-2.87-0.65-4.25l-7.22-1.4c-0.14,0.01-0.28-0.02-0.28-0.09l-1.15-5.25c-0.03-0.08,0.08-0.17,0.19-0.19
		l5.99-4.32c-0.36-1.41-0.74-2.8-1.17-4.17l-7.39-0.48c-0.08,0.06-0.23,0.02-0.26-0.06l-1.79-5.06c-0.01-0.07,0.06-0.15,0.17-0.21
		l5.44-5.02c-0.55-1.34-1.1-2.66-1.7-3.97l-7.35,0.41c-0.14,0.08-0.26,0.06-0.29-0.02l-2.39-4.83c-0.02-0.06,0-0.15,0.14-0.21
		l4.77-5.65c-0.67-1.27-1.42-2.5-2.14-3.73l-7.3,1.3c-0.08,0.1-0.22,0.08-0.26,0.03l-2.96-4.49c-0.05-0.07,0-0.15,0.12-0.25
		l4.02-6.18c-0.87-1.16-1.72-2.32-2.63-3.44l-7.01,2.18c-0.1,0.1-0.23,0.1-0.28,0.05l-3.5-4.09c-0.05-0.05-0.01-0.15,0.09-0.25
		l3.23-6.63c-1-1.04-1.99-2.1-3.01-3.13l-6.72,3.07c-0.08,0.08-0.18,0.1-0.25,0.06l-3.99-3.61c-0.04-0.05-0.03-0.17,0.07-0.27
		l2.4-6.99c-1.13-0.9-2.25-1.82-3.4-2.7l-6.28,3.84c-0.05,0.13-0.18,0.17-0.22,0.13l-4.4-3.13c-0.06-0.03-0.06-0.17,0-0.28
		l1.53-7.21c-1.2-0.77-2.44-1.52-3.66-2.29l-5.78,4.6c-0.05,0.13-0.18,0.16-0.2,0.14l-4.72-2.54c-0.1-0.01-0.1-0.15-0.04-0.28
		l0.63-7.39c-1.28-0.61-2.61-1.21-3.91-1.77l-5.18,5.26c-0.05,0.11-0.15,0.19-0.22,0.16l-5-1.93c-0.08-0.02-0.08-0.14-0.04-0.28
		l-0.31-7.35c-1.38-0.48-2.73-0.91-4.1-1.35l-4.48,5.89c-0.04,0.11-0.12,0.19-0.19,0.17l-5.2-1.28c-0.07-0.04-0.12-0.13-0.07-0.27
		l-1.23-7.33c-1.38-0.28-2.82-0.49-4.24-0.75L193,54.67c-0.04,0.14-0.15,0.22-0.19,0.22l-5.33-0.66c-0.08-0.02-0.13-0.11-0.12-0.26
		l-2.06-7.05c-1.44-0.09-2.9-0.2-4.36-0.29l-2.87,6.77c0,0.13-0.08,0.24-0.16,0.24h-5.37c-0.1,0-0.15-0.11-0.15-0.24l-2.93-6.77
		c-1.58,0.08-3.17,0.21-4.74,0.32l-2.04,7.05c0.04,0.16-0.04,0.22-0.05,0.27l-5.36,0.65c-0.11,0.03-0.18-0.06-0.2-0.2l-3.75-6.34
		c-1.43,0.26-2.86,0.48-4.27,0.78l-1.14,7.31c0.04,0.13,0,0.21-0.06,0.23l-5.19,1.34c-0.12,0.03-0.21-0.05-0.24-0.18L137.91,52
		c-1.36,0.44-2.75,0.9-4.1,1.36l-0.28,7.35c0.09,0.13,0.06,0.24,0,0.26l-4.99,1.97c-0.1,0.03-0.21-0.02-0.23-0.17l-5.21-5.26
		c-1.31,0.61-2.64,1.17-3.92,1.82l0.66,7.33c0.06,0.14,0.03,0.29,0.01,0.29l-4.73,2.56c-0.09,0.03-0.2,0-0.26-0.14l-5.82-4.54
		c-1.23,0.74-2.45,1.49-3.67,2.3l1.56,7.19c0.08,0.11,0.08,0.22,0.03,0.24l-4.38,3.13c-0.08,0.05-0.18,0.02-0.24-0.11l-6.31-3.79
		c-1.14,0.9-2.27,1.79-3.39,2.72l2.4,6.94c0.14,0.09,0.14,0.22,0.11,0.25l-3.96,3.62c-0.1,0.09-0.2,0.05-0.3-0.03l-6.72-3.02
		c-1.03,1.03-1.99,2.09-3,3.14l3.25,6.57c0.12,0.07,0.12,0.2,0.12,0.24l-3.5,4.09c-0.05,0.11-0.17,0.09-0.26-0.02l-7.05-2.14
		c-0.88,1.12-1.74,2.29-2.61,3.47l4.02,6.11c0.15,0.1,0.18,0.18,0.18,0.28l-2.96,4.46c-0.08,0.1-0.19,0.09-0.3,0.01l-7.27-1.3
		c-0.74,1.27-1.46,2.5-2.16,3.76l4.76,5.61c0.16,0.04,0.21,0.17,0.19,0.2l-2.39,4.83c-0.05,0.09-0.16,0.1-0.28,0.03l-7.36-0.37
		c-0.59,1.33-1.14,2.65-1.67,3.99l5.4,4.99c0.15,0.03,0.2,0.11,0.2,0.17l-1.78,5.08c-0.04,0.1-0.14,0.13-0.27,0.06l-7.35,0.56
		c-0.41,1.39-0.83,2.79-1.19,4.15l6.01,4.32c0.14,0,0.22,0.08,0.22,0.13l-1.15,5.26c-0.02,0.11-0.14,0.14-0.27,0.11l-7.21,1.43
		c-0.22,1.41-0.44,2.86-0.64,4.31l6.44,3.49c0.17-0.02,0.23,0.07,0.23,0.15l-0.45,5.3c-0.02,0.13-0.13,0.2-0.26,0.18l-7.01,2.28
		c-0.05,1.45-0.08,2.93-0.08,4.36l6.78,2.67c0.18,0,0.26,0.07,0.29,0.1l0.18,5.37c0,0.13-0.1,0.19-0.25,0.19L47.05,185
		c0.13,1.47,0.26,2.91,0.41,4.33l7.1,1.83c0.14-0.02,0.28,0.04,0.28,0.07l0.82,5.31c0,0.12-0.06,0.18-0.2,0.18l-6.25,3.95
		c0.28,1.45,0.61,2.85,0.95,4.27l7.3,0.91c0.12-0.07,0.23-0.02,0.26,0.06l1.46,5.12c0.06,0.11-0.02,0.19-0.15,0.23l-5.69,4.7
		c0.45,1.36,0.93,2.75,1.42,4.1l7.38,0.01c0.14-0.08,0.23-0.04,0.27,0.03l2.1,4.92c0.03,0.11-0.03,0.2-0.16,0.25l-5.11,5.37
		c0.65,1.29,1.3,2.58,1.98,3.87l7.29-0.88c0.13-0.08,0.24-0.06,0.27-0.04l2.71,4.66c0.04,0.1,0,0.21-0.12,0.24l-4.4,5.9
		c0.8,1.24,1.59,2.49,2.42,3.67l7.13-1.8c0.11-0.07,0.25-0.07,0.27-0.06l3.23,4.3c0.07,0.08,0.01,0.19-0.08,0.28l-3.61,6.41
		c0.92,1.13,1.86,2.2,2.81,3.28l6.87-2.61c0.11-0.11,0.22-0.14,0.27-0.09l3.73,3.84c0.1,0.09,0.08,0.2-0.03,0.29l-2.82,6.81
		c1.07,0.96,2.14,1.97,3.22,2.9l6.47-3.44c0.07-0.13,0.21-0.14,0.26-0.13l4.17,3.37c0.11,0.08,0.07,0.18,0,0.29l-1.96,7.1
		c1.18,0.85,2.37,1.69,3.55,2.53l6.01-4.23c0.08-0.15,0.21-0.19,0.24-0.17l4.58,2.83c0.08,0.05,0.08,0.16,0.02,0.29l-1.06,7.3
		c1.25,0.69,2.54,1.37,3.82,2.02l5.44-4.93c0.05-0.13,0.15-0.21,0.22-0.17l4.88,2.25c0.09,0.03,0.12,0.15,0.04,0.27l-0.15,7.38
		c1.33,0.55,2.67,1.12,4.02,1.61l4.83-5.61c0.04-0.17,0.15-0.2,0.21-0.18l5.11,1.61c0.11,0.04,0.14,0.13,0.09,0.27l0.74,7.37
		c1.41,0.36,2.81,0.7,4.23,1.03l4.06-6.11c0.01-0.16,0.12-0.25,0.17-0.21l5.26,0.98c0.11,0.02,0.16,0.09,0.11,0.26l1.67,7.17
		c1.42,0.2,2.85,0.4,4.31,0.54l3.31-6.58c0-0.17,0.08-0.23,0.13-0.23l5.38,0.32c0.1,0,0.17,0.11,0.14,0.24l2.52,6.91
		c0.66,0,1.35,0.03,1.99,0.03c0.79,0,1.59-0.03,2.36-0.03l2.48-6.91c-0.04-0.16,0.07-0.24,0.08-0.27l5.39-0.33
		c0.09,0,0.19,0.07,0.19,0.22l3.33,6.58c1.46-0.17,2.88-0.35,4.31-0.54l1.61-7.17c-0.06-0.17,0-0.26,0.09-0.28l5.26-0.97
		c0.09-0.02,0.16,0.06,0.21,0.21l4.11,6.1c1.4-0.35,2.83-0.68,4.22-1.07l0.71-7.32c-0.07-0.14,0-0.26,0.04-0.26l5.1-1.63
		c0.1-0.07,0.2,0.03,0.22,0.15l4.89,5.58c1.34-0.47,2.69-1.04,4.01-1.55l-0.21-7.39c-0.06-0.13-0.04-0.25,0.03-0.27l4.87-2.23
		c0.07-0.07,0.18,0,0.24,0.14l5.48,4.92c1.28-0.69,2.55-1.36,3.8-2.07l-1.07-7.26c-0.11-0.14-0.1-0.26-0.05-0.3l4.59-2.83
		c0.06-0.05,0.19,0,0.22,0.14l6.09,4.19c1.19-0.81,2.37-1.64,3.52-2.49l-1.98-7.12c-0.11-0.08-0.11-0.21-0.05-0.26l4.18-3.36
		c0.05-0.05,0.19-0.03,0.25,0.09l6.52,3.43c1.1-1,2.15-1.97,3.2-2.95l-2.82-6.77c-0.11-0.09-0.11-0.22-0.1-0.25l3.76-3.87
		c0.06-0.07,0.19-0.05,0.26,0.03l6.88,2.61c0.95-1.09,1.93-2.14,2.85-3.25l-3.67-6.44c-0.12-0.06-0.14-0.2-0.12-0.24l3.23-4.29
		c0.08-0.06,0.21-0.06,0.28,0.02l7.21,1.74c0.78-1.21,1.57-2.41,2.37-3.62l-4.42-5.88c-0.13-0.06-0.15-0.19-0.13-0.24l2.67-4.68
		c0.04-0.06,0.18-0.06,0.27-0.01l7.35,0.87c0.67-1.29,1.33-2.56,1.96-3.85l-5.12-5.35c-0.16-0.03-0.22-0.13-0.18-0.2l2.09-4.94
		c0.02-0.11,0.15-0.12,0.27-0.08l7.42-0.06c0.47-1.36,0.94-2.7,1.4-4.06l-5.74-4.65c-0.13-0.03-0.2-0.14-0.17-0.21l1.44-5.14
		c0.05-0.09,0.14-0.12,0.28-0.09l7.3-0.97c0.34-1.4,0.68-2.79,0.97-4.21l-6.3-3.93c-0.1-0.02-0.21-0.1-0.18-0.14l0.8-5.32
		c0.05-0.08,0.14-0.13,0.28-0.13l7.14-1.87c0.15-1.41,0.24-2.86,0.38-4.3l-6.67-3.09C296.55,181.56,296.46,181.47,296.46,181.41"/>
	<path class="st2" d="M175.01,285.37c-60.41,0-109.42-49.37-109.42-110.28c0-60.89,49.01-110.25,109.42-110.25
		c60.43,0,109.41,49.36,109.41,110.25C284.42,236.01,235.44,285.37,175.01,285.37"/>
</g>
<g>
	<g>
		<path class="st3" d="M262.98,128.65c-12.24,1.89-14.8,4.17-19.93,19.91c-4.2,12.13-14.99,46.26-30.16,99.35h-8.23
			c-10.07-29.01-20.66-59.53-30.72-87.97h-0.37c-9.69,30.33-19.2,59.34-28.16,87.97h-8.22c-9.88-34.12-19.38-66.74-29.62-100.3
			c-4.39-15.16-7.49-17.44-18.28-18.96v-6.07h50.64v6.07c-13.72,1.71-13.89,3.98-11.34,13.65c6.4,23.52,12.98,46.84,19.93,69.96
			h0.36c9.15-28.82,18.66-58.58,27.43-88.35H184c10.05,29.76,20.66,59.35,31.08,88.73h0.36c7.31-23.89,15.72-56.31,18.46-68.26
			c2.55-11.37,1.83-14.22-12.8-15.74v-6.07h41.87V128.65z"/>
	</g>
</g>
</svg>
