<svg xmlns="http://www.w3.org/2000/svg" version="1.1" xmlns:xlink="http://www.w3.org/1999/xlink" xmlns:svgjs="http://svgjs.dev/svgjs" width="1000" height="1000"><g clip-path="url(#SvgjsClipPath1066)"><rect width="1000" height="1000" fill="#fcfcfc"></rect><g transform="matrix(2.166729862954336,0,0,2.166729862954336,100,218.96430312550777)"><svg xmlns="http://www.w3.org/2000/svg" version="1.1" xmlns:xlink="http://www.w3.org/1999/xlink" xmlns:svgjs="http://svgjs.dev/svgjs" width="369.22" height="259.41"><svg id="Layer_2" xmlns="http://www.w3.org/2000/svg" viewBox="0 0 369.22 259.41"><defs><style>.cls-1{fill:#2a3769;}.cls-1,.cls-2{stroke-width:0px;}.cls-2{fill:#c29743;}</style><clipPath id="SvgjsClipPath1066"><rect width="1000" height="1000" x="0" y="0" rx="350" ry="350"></rect></clipPath></defs><path class="cls-2" d="M250.9,259.41c-49.53,0-82.81-28.38-82.81-70.62,0-8.79,1.09-17.3,3.26-25.34H0l11.75-26.79h23.75L85.34,23.07h-28.68L66.79,0h132.89l-6.02,4.5c-22.48,16.81-62.97,49.11-81.59,76.57-12.67,18.69-15.69,34.03-9,45.67,4.05-5.93,13.98-16.95,30.88-15.17,25.16,2.64,42.91,3.53,55.86,2.77,9.71-.57,19.41-3.41,28.04-8.23,19.54-10.89,42.78-16.65,67.22-16.65,17.98,0,32.09,3.25,43.02,9.93l4.3-5.26h36.83l-11.95,59.59h-39.3l.31-11.77c-8.67-11.85-26.88-14.36-40.77-14.36-37.22,0-63.21,22.76-63.21,55.36,0,23.12,18.17,36.93,48.61,36.93,24.59,0,47.04-13.92,55.85-34.64l.99-2.33,33.05,14.52-.67,2.14c-13.86,44.12-61.37,59.84-101.21,59.84h-.02ZM7.65,158.45h170.41l-1,3.24c-2.63,8.5-3.97,17.62-3.97,27.1,0,19.14,7.2,35.46,20.81,47.22,13.95,12.04,33.66,18.41,57,18.41,37.41,0,81.83-14.29,95.74-54.22l-24.34-10.69c-10.22,21.26-33.75,35.38-59.41,35.38-33.07,0-53.61-16.07-53.61-41.93,0-35.54,28.05-60.36,68.21-60.36,15.33,0,35.65,2.98,45.35,17.19l.46.67-.21,8.28h30.07l9.95-49.59h-28.36l-5.64,6.91-1.89-1.27c-10.34-6.94-24.12-10.31-42.15-10.31-23.25,0-46.26,5.69-64.78,16.01-9.29,5.18-19.73,8.24-30.19,8.85-13.23.77-31.24-.11-56.67-2.79-19.24-2.02-27.63,15.19-27.98,15.92l-1.75,3.68-2.49-3.22c-10.72-13.88-8.46-32.27,6.73-54.66,17.47-25.76,53.41-55.42,76.78-73.27h-114.65l-5.74,13.07h28.68l-54.22,123.58H15.02l-7.37,16.79h0Z"></path><path class="cls-1" d="M334.75,99.13l-5.64,6.91-1.89-1.27c-10.34-6.94-24.12-10.31-42.15-10.31-23.25,0-46.26,5.69-64.78,16.01-9.29,5.18-19.73,8.24-30.19,8.85-13.23.77-31.24-.11-56.67-2.79-19.24-2.02-27.63,15.19-27.98,15.92l-1.75,3.68-2.49-3.22c-10.72-13.88-8.46-32.27,6.73-54.66,17.47-25.76,53.41-55.42,76.78-73.27h-114.65l-5.74,13.07h28.68l-54.22,123.58H15.02l-7.37,16.79h170.41l-1,3.24c-2.63,8.5-3.97,17.62-3.97,27.1,0,19.14,7.2,35.46,20.81,47.22,13.95,12.04,33.66,18.41,57,18.41,37.41,0,81.83-14.29,95.74-54.22l-24.34-10.69c-10.22,21.26-33.75,35.38-59.41,35.38-33.07,0-53.61-16.07-53.61-41.93,0-35.54,28.05-60.36,68.21-60.36,15.33,0,35.65,2.98,45.35,17.19l.46.67-.21,8.28h30.07l9.95-49.59h-28.36Z"></path><path class="cls-1" d="M187.12,35.24l-6.16,4.04c-33.2,21.75-38.81,29.32-39.03,29.63l-.93,1.3,10.75,1.7c.97.15,1.89.65,2.58,1.39,2.45,2.66,5.81,4.12,9.38,4.12.45,0,.91-.02,1.37-.07,5.88-.61,10.65-5.32,11.34-11.18.39-3.36-.51-6.66-2.55-9.31-1.58-2.05-1.45-4.97.3-6.96l12.96-14.65h-.01Z"></path><path class="cls-2" d="M169.8,64.93c-.18,3.36-3.05,5.95-6.41,5.77-2.63-.14-4.78-1.93-5.51-4.31l7.51-7.64c2.67.76,4.57,3.29,4.41,6.18Z"></path></svg></svg></g></g></svg>